<?xml version="1.0" encoding="UTF-8" standalone="no"?>
<!-- Created with Inkscape (http://www.inkscape.org/) -->

<svg
   width="1606"
   height="1210"
   inkscape:version="1.4.3 (0d15f75042, 2025-12-25)"
   sodipodi:docname="dino.svg"
   version="1.1"
   viewBox="0 0 1606 1210"
   id="svg3"
   xmlns:inkscape="http://www.inkscape.org/namespaces/inkscape"
   xmlns:sodipodi="http://sodipodi.sourceforge.net/DTD/sodipodi-0.dtd"
   xmlns="http://www.w3.org/2000/svg"
   xmlns:svg="http://www.w3.org/2000/svg">
  <defs
     id="defs3" />
  <sodipodi:namedview
     bordercolor="#000000"
     borderopacity="0.25"
     inkscape:current-layer="g3"
     inkscape:cx="727.71084"
     inkscape:cy="602.40964"
     inkscape:deskcolor="#d1d1d1"
     inkscape:pagecheckerboard="true"
     inkscape:pageopacity="0.0"
     inkscape:showpageshadow="2"
     inkscape:window-height="969"
     inkscape:window-maximized="0"
     inkscape:window-width="1504"
     inkscape:window-x="0"
     inkscape:window-y="0"
     inkscape:zoom="0.415"
     pagecolor="#ffffff"
     id="namedview1" />
  <g
     transform="translate(-49.297 -2.9185)"
     inkscape:groupmode="layer"
     inkscape:label="Image"
     id="g3">
    <path
       d="m777.33 1187.2c-2.5667-0.2879-12.167-1.1547-21.333-1.9262-120.98-10.183-245.57-60.07-341.6-136.79-28.333-22.635-52.796-45.252-74.814-69.17-17.458-18.964-38.268-43.751-38.232-45.537 0.0125-0.62106 10.662-6.7733 23.667-13.672 13.004-6.8984 28.367-15.081 34.14-18.184l10.496-5.641-8.4963-0.92778c-4.673-0.51028-11.947-1.7943-16.165-2.8534-5.1723-1.2989-10.597-1.6457-16.667-1.0655l-8.9983 0.86019 10-10.253c11.724-12.02 30.515-28.508 47.2-41.415 6.5266-5.0486 11.284-9.3733 10.572-9.6106-1.8307-0.61022-50.022 15.965-63.341 21.786-13.783 6.0238-26.657 13.439-35.591 20.501-3.7621 2.9738-6.8402 5.1239-6.8402 4.778s1.5622-5.6098 3.4716-11.698c4.8429-15.441 13.115-30.91 31.139-58.23 17.436-26.429 24.693-38.646 23.603-39.736-0.95598-0.95598-27.889 14.483-47.547 27.255-18.33 11.91-41.557 29.277-52.876 39.535-4.5153 4.0923-8.5653 7.4405-9 7.4405-3.2769 0 4.6326-22.377 12.253-34.667 3.4106-5.5 14.375-20.2 24.366-32.667 9.9909-12.467 21.974-28.367 26.63-35.333 4.6554-6.9667 13.901-19.419 20.546-27.673 12.799-15.897 22.951-31.371 21.007-32.019-1.898-0.63268-30.685 12.12-59.454 26.339-32.143 15.886-62.718 32.312-88.403 47.495-10.413 6.1551-19.229 11.191-19.591 11.191-1.102 0 6.9635-18.672 12.664-29.316 18.327-34.225 64.176-92.454 111.18-141.19l13.35-13.844-6.6667 0.9509c-21.641 3.0868-67.686 23.982-133.03 60.369-15.232 8.4824-27.896 15.185-28.142 14.896-0.2456-0.28982-0.79723-2.3744-1.2258-4.6325-2.2137-11.662 45.352-60.263 131.04-133.89l29.98-25.761-7.3137 0.94651c-20.036 2.593-55.919 16.054-121.31 45.51-42.884 19.316-65.558 28.857-66.452 27.963-0.95035-0.95035 6.3714-12.435 16.833-26.404 5.626-7.5123 20.932-24.352 34.231-37.661 32.871-32.896 58.562-54.68 132.72-112.54 40.244-31.397 48.098-37.736 47.499-38.336-0.26929-0.26928-12.117 2.5425-26.327 6.2484-14.211 3.7059-32.738 8.5205-41.171 10.699-8.4333 2.1786-27.933 7.2425-43.333 11.253-15.4 4.0106-33.221 8.5069-39.603 9.9917s-18.682 5.1446-27.333 8.1329c-14.019 4.8422-32.397 8.3592-32.397 6.1998 0-0.44347 9.45-10.03 21-21.304 101.44-99.018 259.52-225.14 353-281.63 40.281-24.345 93.147-47.273 138-59.851 38.223-10.719 67.6-14.554 106.15-13.858l27.853 0.50333 24 7.699c68.822 22.077 87.038 27.849 105.33 33.374 22.942 6.9277 62.309 16.826 66.922 16.826 1.7159 0 11.097-2.0623 20.847-4.583s26.69-6.2562 37.646-8.3011c18.097-3.3782 22.662-3.7152 49.919-3.6864 28.537 0.03016 30.65 0.2102 43.333 3.6925 7.3333 2.0134 19.033 6.3964 26 9.74 11.644 5.5886 14.012 7.4402 29.339 22.942 33.227 33.607 48.024 62.828 47.975 94.743-0.011 7.0327-0.9514 16.687-2.0901 21.453l-2.0705 8.6667 10.369 9.8344c20.183 19.143 42.802 35.322 71.145 50.889 34.776 19.101 60.111 29.71 158.67 66.441 71.512 26.652 102.04 41.411 128.88 62.316 10.363 8.0715 21.072 19.27 24.219 25.327 2.4193 4.656 4.0729 18.256 6.2245 51.193 3.3352 51.055 6.6727 77.539 12.903 102.39 2.0997 8.3741 2.62 13.71 2.1452 22-0.577 10.073-1.3275 12.447-9.4314 29.831-21.346 45.788-44.937 103.59-44.937 110.11 0 7.5215-14.892 19.742-28.249 23.182-9.0261 2.3246-29.165 1.9527-43.59-0.80509l-7.1726-1.3712-8.8274 6.473c-21.216 15.558-40.545 27.495-78.061 48.211l-19.9 10.989-14.14 0.67019c-26.243 1.2439-61.142-4.7003-127.42-21.702-97.738-25.074-122.12-25.378-166.64-2.076-28.609 14.974-66.066 35.541-75.896 41.674-12.252 7.6435-30.293 24.912-39.754 38.052-19.716 27.384-31.147 58.793-45.021 123.71-12.422 58.121-16.081 71.51-25.439 93.084l-5.1714 11.923 3.3283 10.163c4.3359 13.24 10.6 38.628 9.7417 39.486-0.3682 0.3682-6.0213 1.3002-12.562 2.0711-11.627 1.3703-104.65 2.8604-113.89 1.8244zm13.333-50.722c0-0.4603-2.9136-4.8103-6.4747-9.6667-10.562-14.404-21.833-31.756-32.13-49.465-8.8717-15.258-21.396-39.049-21.396-40.644 0-0.3662 4.65 3.0747 10.333 7.6464 5.6833 4.5717 16.033 11.981 23 16.464 14.285 9.194 57.453 34.2 57.962 33.576 0.18239-0.224 4.6554-8.6407 9.9399-18.704l9.6083-18.297-5.0882-4.3196c-23.235-19.725-52.391-52.086-66.738-74.075-7.4654-11.442-19.475-35.46-21.148-42.295l-0.96679-3.9494 5.2155 4.0744c8.298 6.4826 28.166 19.409 41.321 26.885 12.14 6.8985 56.969 28.273 59.297 28.273 0.68269 0 3.1462 3.3754 5.4744 7.5008l4.2332 7.5008 2.5669-6.5008c5.9242-15.003 10.498-35.734 11.278-51.124l0.77552-15.29 12.432-17.968c6.8377-9.8823 12.265-18.136 12.06-18.34-0.52352-0.52352-8.7687 1.721-23.556 6.4125-23.819 7.5568-47.678 20.461-62.304 33.696-3.8337 3.4692-7.5837 5.9286-8.3333 5.4653-2.1135-1.3062-1.6072-15.871 0.79858-22.972 1.1888-3.509 4.8111-11.942 8.0495-18.741 10.053-21.105 26.107-35.831 62.897-57.694 10.391-6.175 18.892-11.616 18.892-12.092s-12.603-6.4252-28.008-13.221l-28.008-12.356-7.2744-10.805c-4.0009-5.9425-16.338-22.205-27.417-36.138-11.078-13.933-23.397-30.193-27.374-36.133-13.467-20.111-23.253-44.886-23.253-58.871v-5.5006l5.8803 2.0036c4.4951 1.5316 9.9132 6.0064 23 18.996 48.337 47.976 104.43 80.336 157.12 90.634 19.674 3.8456 24.667 4.2883 24.667 2.1871 0-2.5966 14.075-5.6061 87.333-18.673 72.818-12.989 105.62-21.339 115.07-29.293l3.6965-3.1104 5.7501 5.9089c8.9655 9.2133 21.154 17.247 39.04 25.731 19.942 9.4592 39.012 16.241 90.175 32.066l39.066 12.084 10.267-2.797c26.967-7.3467 35.922-10.632 43.656-16.016 4.3695-3.0418 8.1908-5.756 8.4918-6.0315 1.0424-0.95411-4.5814-6.1982-12.24-11.414-10.672-7.2673-21.912-12.061-38.307-16.338-128.88-33.616-172.07-47.754-222.36-72.771-38.598-19.203-62.16-37.78-77.832-61.365l-2.1904-3.2964-0.9752 5.0919c-0.5397 2.8179-0.3042 8.4747 0.5273 12.667 3.5147 17.72 16.507 35.381 42.354 57.575 9.2835 7.9714 13.959 12.799 12.613 13.025-1.1761 0.19707-18.215-2.013-37.865-4.9113l-35.726-5.2696-11.607-6.2341c-85.589-45.97-110.72-111.22-84.195-218.55 2.1832-8.8328 5.3758-20.86 7.0949-26.726 3.7995-12.967 3.4645-14.112 8.1974 28 1.8956 16.867 3.8627 33.392 4.3713 36.723 0.61878 4.0527 5.1148 13.425 13.591 28.333 14.46 25.431 12.234 24.877 22.546 5.6112 11.32-21.147 15.264-32.971 15.365-46.065 0.082-10.555-0.2765-12.133-4.8471-21.333-6.066-12.21-13.533-21.613-42.295-53.253-27.128-29.844-51.099-57.464-50.442-58.121 0.49558-0.49558 7.0403 1.899 48.571 17.771l24.231 9.2606 36.034 28.839c54.908 43.945 76.351 59.616 132.17 96.591 81.713 54.127 107 69.773 139.54 86.328 58.443 29.738 115.75 46.037 187.8 53.416 12.697 1.3002 32.077 4.5631 47.871 8.0595 14.596 3.2311 26.691 5.7168 26.878 5.5238 0.83-0.85599 7.2392-22.443 8.8132-29.684 1.0654-4.9014 1.7016-16.521 1.6425-30-0.079-18.011-0.6043-23.851-2.897-32.205-6.4614-23.547-16.275-33.819-21.705-22.721-2.4358 4.9781-3.2197 32.208-1.377 47.832 0.8305 7.0416 1.2864 13.026 1.0131 13.3-0.6917 0.69173-21.436-24.515-31.442-38.205-12.747-17.44-16.661-26.353-17.153-39.051-0.4975-12.848 0.4589-14.712 18.958-36.949 12.924-15.535 20.307-27.707 18.95-31.243-1.479-3.8543-16.522-14.242-30.886-21.328-18.319-9.0372-39.079-17.342-80-32.005-87.219-31.251-119.86-44.378-159.62-64.185-37.907-18.885-77.732-45.194-100.76-66.566-5.3445-4.9598-10.054-8.6808-10.466-8.2688-1.4419 1.4419 2.5784 11.004 8.2385 19.594 3.1406 4.7667 11.913 15.506 19.494 23.866 28.487 31.412 34.369 38.172 34.409 39.553 0.055 1.8687-24.931 1.1288-51.292-1.5188-47.402-4.7611-86.524-16.69-113.41-34.582-17.319-11.524-28.753-25.762-30.796-38.351-1.0108-6.229 3.8382-24.789 8.1972-31.376 2.7318-4.128 6.8974-7.1384 18.874-13.64 16.921-9.1852 29.039-14.527 33.138-14.607 6.713-0.13107 6.2275-2.3704-1.3138-6.0601-9.4234-4.6104-22.693-5.14-34.02-1.3577-8.8908 2.969-25.844 11.488-41.884 21.049-13.508 8.0508-16.096 11.621-18.471 25.489-2.0058 11.71 0.99717 26.316 10.335 50.266 7.68 19.699 11.712 32.023 10.781 32.953-0.3103 0.31026-4.9582-1.7374-10.329-4.5503-22.418-11.742-53.897-52.904-58.99-77.134l-0.84062-4-24.301-0.053c-25.886-0.0564-37.181-1.6708-55.659-7.9556-13.594-4.6236-35.385-16.627-33.288-18.336 1.307-1.0658 75.613-19.565 84.647-21.073 14.89-2.4864 41.448-11.846 77.333-27.255 37.332-16.03 63.003-24.992 80.147-27.982 29.019-5.0605 57.152-0.11103 78.887 13.879 4.1984 2.7024 8.5334 5.4593 9.6334 6.1266s-0.4036-1.808-3.3413-5.5007c-2.9378-3.6927-11.038-14.001-18-22.907-6.9623-8.9061-13.782-16.575-15.154-17.042-4.1679-1.4187-40.76-0.91875-52.838 0.72186-26.051 3.5386-49.262 9.2663-92 22.702-23.001 7.2307-50.307 15.191-57.122 16.653-2.4502 0.52547-15.845 5.1032-29.767 10.173-13.922 5.0696-25.933 8.8336-26.692 8.3645-4.9874-3.0824 8.949-25.695 26.022-42.223 5.3658-5.1944 8.8194-9.5122 8.116-10.147-0.67351-0.60764-6.4587-2.1163-12.856-3.3525s-23.797-5.5362-38.667-9.5554c-63.405-17.138-81.987-20.574-111.21-20.562-52.498 0.02231-108.65 18.173-156.5 50.588-38.771 26.266-43.242 29.506-55.549 40.26-6.997 6.1136-16.449 13.922-21.005 17.352-8.4862 6.3894-15.841 15.023-23.468 27.55-5.5563 9.1249-22.753 48.243-21.208 48.243 0.64684 0 3.4382-0.87583 6.2031-1.9463 11.571-4.48 30.694-8.2865 60.657-12.074 9.3296-1.1794 18.93-2.687 21.333-3.3502 4.2833-1.1818 4.3138-1.1602 1.5319 1.0824-1.5612 1.2586-6.6262 4.9883-11.255 8.2883-12.044 8.5857-29.864 26.869-39.704 40.737-36.05 50.805-47.298 121.92-30.75 194.41 1.4833 6.4981 2.3951 12.116 2.0262 12.485-1.4133 1.4133-10.394-5.4966-18.163-13.976-9.8978-10.802-18.869-28.241-25.363-49.304-2.54-8.2386-5.0202-14.989-5.5114-15-1.3824-0.032-4.6381 15.965-7.7299 37.979-3.784 26.944-3.3179 25.941-8.8531 19.053-2.5279-3.1458-6.8299-10.333-9.56-15.972-2.7301-5.6389-5.3419-10.289-5.804-10.333-1.7714-0.17023-2.6021 30.542-1.2239 45.253 5.9603 63.623 32.109 121.8 88.136 196.08 17.218 22.828 19.239 27.235 19.225 41.922-0.0138 13.961-2.2975 20.531-15.989 46-10.839 20.162-15.096 31.167-16.903 43.697-1.4205 9.8509-0.67105 26.149 1.3365 29.065 0.60507 0.87884 8.0729 0.99514 21.592 0.33626 54.671-2.6645 74.257-3.8397 77.151-4.6291 2.9128-0.79447 3.0313-0.63531 1.5657 2.1032-3.1609 5.9062-17.304 18.583-30.2 27.069-16.921 11.134-32.38 19.107-79.183 40.841-20.9 9.7048-40.237 19.011-42.972 20.681l-4.9719 3.0354 8.6448 8.3788 22.649-5.1914c12.457-2.8553 36.448-8.5853 53.313-12.733 33.757-8.3028 54.297-12.803 55.04-12.06 0.26555 0.26555-9.909 6.6266-22.61 14.136-63.742 37.686-74.426 44.147-74.417 45.007 5e-3 0.5127 7.3552 6.3886 16.333 13.058 97.713 72.58 208.29 112.75 331.32 120.36 1.65 0.102 3-0.1911 3-0.6514zm-104.72-397.23c-27.177-20.438-38.662-30.379-60.623-52.471-13.416-13.497-22.076-23.372-24.667-28.131-3.8548-7.0804-3.9924-7.9312-3.987-24.667 5e-3 -15.535 0.48434-19.132 4.6206-34.667 5.0912-19.122 5.4955-26.923 3.3977-65.568-0.69713-12.842-0.51439-22.459 0.57005-30 3.1068-21.603 14.092-47.795 27.177-64.8 6.379-8.2901 29.542-30.965 31.631-30.965 0.69559 0 1.2647 2.0768 1.2647 4.6152 0 3.4219-1.9539 7.4726-7.5571 15.667-12.154 17.774-17.333 38.347-16.092 63.928 1.7903 36.921 15.997 64.139 66.244 126.91 13.995 17.484 27.265 34.434 29.489 37.667l4.0441 5.8779h-3.0975c-9.6338 0-46.472-11.246-93.364-28.502-7.15-2.6311-13-4.2546-13-3.6078 0 2.84 10.072 24.834 17.488 38.188 9.8258 17.694 23.771 37.776 39.61 57.042 8.7948 10.698 12.172 15.899 13.178 20.298 0.74437 3.2529 1.1841 5.9144 0.97711 5.9144s-7.9943-5.7291-17.305-12.731zm192.05-330.63c-21.523-4.7232-52.492-7.6333-88.301-8.2974-38.098-0.70655-58.916 0.50006-86.912 5.0372-13.894 2.2517-15.561 2.2853-19.231 0.38763l-4.0181-2.0778 3.2307-2.5388c20.442-16.063 42.348-26.477 87.802-41.738l24.572-8.25-4.5715-3.444c-2.5143-1.8942-9.5847-6.2011-15.712-9.5708-13.519-7.4349-22.136-13.617-20.441-14.664 3.1183-1.9272 49.63-10.398 68.581-12.49 11.55-1.275 20.98-2.6209 20.956-2.9908-0.0242-0.36987-5.9733-8.0839-13.22-17.142-7.2469-9.0583-15.095-20.07-17.441-24.471-4.9452-9.2782-5.6863-9.1446 12.039-2.1699 17.743 6.9817 34.822 17.126 56.667 33.656 11.317 8.5636 33.88 28.039 34.373 29.669 0.16154 0.53387-12.226 3.5274-27.529 6.6524-15.302 3.1249-28.349 5.8583-28.992 6.0743-0.64336 0.21592 7.2596 15.547 17.562 34.068 10.302 18.522 18.363 34.272 17.913 35-1.0714 1.7336-7.4076 1.478-17.328-0.69899zm219.55-26.035c-19.8-2.4827-32.107-5.1766-38.538-8.4357-12.74-6.4557-24.927-21.48-33.032-40.722-7.2792-17.282-7.2733-17.648 0.1733-10.729 18.591 17.273 38.086 25.752 90.27 39.26 22.095 5.7195 36.579 10.43 49.58 16.125l5.3334 2.3361-4.6667 1.1603c-6.8262 1.6972-57.701 2.437-69.121 1.0051zm-389.88-49.348c-9.6181-2.6985-30.406-22.844-39.679-38.453-6.392-10.759-11.695-26.252-12.886-37.645-0.45002-4.3056-1.279-7.8283-1.8422-7.8283-1.5508 0-19.578 10.368-28.362 16.312-4.271 2.8902-11.975 9.226-17.12 14.08l-9.3548 8.8248-2.3963-3.1768c-2.3106-3.0633-2.3036-3.5141 0.1974-12.608 3.5162-12.786 7.8214-21.888 16.398-34.668 14.45-21.532 37.677-45.688 50.142-52.145 5.8264-3.0185 35.522-11.187 51.782-14.244 23.951-4.5029 65.972-3.9342 83.136 1.1251 1.294 0.38142 2.0004 1.2636 1.5697 1.9604-2.0245 3.2757-16.783 12.704-35.425 22.631-11.274 6.0032-24.398 13.492-29.164 16.643-7.7228 5.1042-8.9874 6.5742-11.612 13.498-4.4847 11.832-8.147 26.353-10.366 41.103-2.124 14.116-2.5902 47.58-0.81331 58.381 0.57732 3.5094 0.69155 6.5743 0.25385 6.8107-0.43771 0.23641-2.4441-0.0326-4.4587-0.59785zm828.5 379.41c4.8803-7.845 1.8176-11.341-9.9218-11.326l-5.5799 7e-3 -0.1606 15.206-0.1605 15.206 6.6672-7.5468c3.6669-4.1507 7.787-9.3468 9.1556-11.547zm-108.97-9.3745c5.0605-8.4341 8.9605-15.535 8.6667-15.78-0.2938-0.24465-4.3248-1.3783-8.9578-2.5192-6.176-1.5209-8.5541-1.6633-8.9128-0.53385-0.8374 2.6372-1.5175 34.208-0.7364 34.187 0.4067-0.0109 4.8798-6.9205 9.9403-15.355zm58.758-2.4834 3.7425-2.9841-8.2264-2.9995c-13.197-4.812-15.69-3.2446-16.008 10.066-0.238 9.95 0.5537 10.324 9.1012 4.2958 4.2066-2.9666 9.3326-6.7367 11.391-8.378zm-119.48-0.19127c3.0802-2.5918 16.185-22.013 16.185-23.987 0-0.97915-13.621-3.4723-15.349-2.8094-1.4494 0.55617-1.9845 2.9003-1.9845 8.6928 0 4.9687-0.9961 10.255-2.6667 14.152-1.4667 3.4216-2.6667 6.4713-2.6667 6.7772 0 1.4716 2.852 0.22808 6.482-2.8264zm-38.579-29.271c4.4533-5.4928 8.0969-10.249 8.0969-10.569 0-0.32009-3.3483-2.4977-7.4407-4.8391-4.9983-2.8598-7.8817-3.8161-8.7843-2.9136-1.9258 1.9258-3.2297 28.308-1.3991 28.308 0.7867 0 5.0739-4.4941 9.5272-9.9868zm-37.508-28.866c1.2228-2.6374-15.891-9.4532-17.441-6.946-0.3863 0.62505-1.1365 6.8355-1.6671 13.801l-0.9648 12.665 9.8388-9.3333c5.4113-5.1333 10.017-9.7171 10.234-10.186zm-67.315-20.48c5.7106-4.7667 10.954-8.6667 11.651-8.6667 0.6975 0 1.2682-0.8272 1.2682-1.8382 0-2.0943-4.201-4.0342-14.431-6.6639l-7.0977-1.8245-1.3588 3.4967c-1.8371 4.7275-3.1408 24.163-1.6208 24.163 0.6634 0 5.8784-3.9 11.589-8.6667zm-85.134-315.25c0.424-0.68597-4.3177-6.536-10.537-13-10.974-11.405-11.309-11.632-11.359-7.6812-0.064 5.0967-6.082 17.399-9.0731 18.547-1.9241 0.73836-1.9623 1.0315-0.2737 2.0994 2.5674 1.6236 30.242 1.6545 31.243 0.0348zm-67.128-28.495c0.7283-2.7916 3.4162-7.3912 5.9731-10.221 3.2509-3.5984 4.1662-5.4441 3.0437-6.1378-0.8829-0.54564-7.4441-1.2732-14.581-1.6169l-12.975-0.62481 1.0949 5.8382c1.7192 9.1672 3.4684 12.698 9.5881 19.356l5.7035 6.2046 0.4141-3.861c0.2278-2.1236 1.0101-6.145 1.7385-8.9366z"
       fill="#010000"
       id="path3" />
  </g>
</svg>
