<?xml version="1.0" encoding="UTF-8" standalone="no"?>
<!-- Ianalchemy, Public domain, via Wikimedia Commons -->
<svg xmlns="http://www.w3.org/2000/svg" width="1052.3622" height="744.09448" version="1.0">
  <g fill-rule="evenodd" stroke="#000">
    <path d="M586.39356 457.21116a193.444215 193.444215 0 1 1-386.88843 0 193.444215 193.444215 0 1 1 386.88843 0z"/>
    <path fill="#fc6866" d="M552.048366 457.211154a159.09903 159.09903 0 1 1-318.19806 0 159.09903 159.09903 0 1 1 318.19806 0z"/>
    <path d="M490.93408 438.27081a38.890875 38.890875 0 1 1-77.78175 0 38.890875 38.890875 0 1 1 77.78175 0zm-118.69289 0a38.890875 38.890875 0 1 1-77.78175 0 38.890875 38.890875 0 1 1 77.78175 0zm656.59918-61.871851a193.444215 193.444215 0 1 1-386.88843 0 193.444215 193.444215 0 1 1 386.88843 0z"/>
    <path fill="#fcfe9b" d="M994.49518 376.398949a159.09903 159.09903 0 1 1-318.19806 0 159.09903 159.09903 0 1 1 318.19806 0z"/>
    <path d="M933.38089 357.458609a38.890875 38.890875 0 1 1-77.78175 0 38.890875 38.890875 0 1 1 77.78175 0zm-118.69289 0a38.890875 38.890875 0 1 1-77.78175 0 38.890875 38.890875 0 1 1 77.78175 0z"/>
    <path d="M798.525619 301.1425889a193.444215 193.444215 0 1 1-386.88843 0 193.444215 193.444215 0 1 1 386.88843 0z"/>
    <path fill="#9ecd9a" d="M764.18043 301.14258a159.09903 159.09903 0 1 1-318.19806 0 159.09903 159.09903 0 1 1 318.19806 0z"/>
    <path d="M703.0661422 282.2022345a38.890875 38.890875 0 1 1-77.78175 0 38.890875 38.890875 0 1 1 77.78175 0zm-118.6928922 0a38.890875 38.890875 0 1 1-77.78175 0 38.890875 38.890875 0 1 1 77.78175 0zm-180.81731 19.3439084a193.444215 193.444215 0 1 1-386.88843 0 193.444215 193.444215 0 1 1 386.88843 0z"/>
    <path fill="#9999cb" d="M369.21075 301.54613a159.09903 159.09903 0 1 1-318.19806 0 159.09903 159.09903 0 1 1 318.19806 0z"/>
    <path d="M308.09646 282.605793a38.890875 38.890875 0 1 1-77.78175 0 38.890875 38.890875 0 1 1 77.78175 0zm-118.69289 0a38.890875 38.890875 0 1 1-77.78175 0 38.890875 38.890875 0 1 1 77.78175 0z"/>
  </g>
</svg>
